<svg version="1.2" xmlns="http://www.w3.org/2000/svg" viewBox="0 0 1024 1024" width="1024" height="1024">
	<style>
		.s0 { fill: #7e87c5 } 
	</style>
	<path id="Path 0" fill-rule="evenodd" class="s0" d="m641 120v29h-44v42h60v54h34v45h-19v-10h-16v-7h-13v27h14v23h49v53l-48.5 0.5-0.5 25.5 29.5 0.5 0.5 25.5h56v24h-56v27h45v33h39v29h-31v44h35v31h-35v17h51v50h-28v22h27v14l41.5 0.5 0.5 31.5h65v27h-28v47h-25v35h-29v20h32v-21h67l-0.03 10.25c-0.03 8.56 0.26 10.53 1.75 11.94 0.98 0.92 5.83 3.25 10.78 5.15 4.95 1.91 12.74 4.3 25.61 7.16l-0.61 10h-339l-0.32-2.5c-0.18-1.38-0.1-3.4 0.19-4.5 0.41-1.59 2.01-2.29 7.82-3.39 4.02-0.77 10.69-2.5 14.81-3.85 4.13-1.34 11.1-4.31 15.5-6.6 4.63-2.4 10.74-6.72 14.5-10.26 3.72-3.5 7.85-8.64 9.66-12.01 1.74-3.24 3.72-8.81 4.41-12.39 0.77-4.04 1-9.72 0.62-15-0.36-4.84-1.96-13.02-3.73-19-1.71-5.77-3.18-11.17-3.28-12-0.16-1.3 4.14-1.53 65.32-2v-55h50v-25h-62v27h-33v22h-15.5c-11.35 0-15.69-0.33-16.21-1.25-0.39-0.69-8.5-24.65-18.01-53.25-9.52-28.6-17.3-52.56-17.29-53.25 0.01-0.97 6.58-1.25 59.01-1.25v-54h-45v27h-24l-6.52-19.75c-3.58-10.86-6.84-20.35-7.25-21.09-0.58-1.07-4.59-0.29-19.73 3.83-10.45 2.85-27.1 7.43-37 10.2-9.9 2.76-61.2 17.31-114 32.32-52.8 15.01-100.73 28.58-117 33l-8.18 20.49c-4.5 11.28-9.31 23.2-10.68 26.5-1.37 3.3-4.82 12.08-7.65 19.5-2.84 7.42-6.9 18-9.02 23.5-2.12 5.5-5.72 14.95-7.99 21-2.27 6.05-5.93 15.95-8.13 22-2.2 6.05-4.65 14.26-5.43 18.25-0.78 3.99-1.41 10.06-1.41 13.5 0.01 3.44 0.71 9.17 1.56 12.75 0.85 3.58 2.84 8.75 4.43 11.5 1.59 2.75 5.28 7.34 8.19 10.21 2.92 2.87 8.91 7.25 13.31 9.74 4.4 2.5 12.95 6.09 19 7.98 6.05 1.9 14.6 4.13 19 4.97 4.4 0.83 10.17 1.87 12.81 2.31 4.77 0.78 4.82 0.82 4.19 7.79h-234l-0.5-7.5 6.75-1.4c3.71-0.78 11.25-3.07 16.75-5.1 5.5-2.03 13.6-5.63 18-8 4.4-2.37 12.05-7.41 17-11.21 4.95-3.8 12.21-10.71 16.12-15.35 3.92-4.64 8.71-10.92 10.64-13.94 1.94-3.02 6.33-11.13 9.76-18 3.44-6.88 8.23-17.45 10.66-23.5 2.43-6.05 13.81-35.52 25.3-65.5 11.48-29.98 23.87-62.15 27.54-71.5 3.66-9.35 8.16-21.05 9.98-26 1.83-4.95 5.19-13.73 7.48-19.5 2.29-5.77 5.9-15 8.02-20.5 2.12-5.5 5.72-14.73 8-20.5 2.28-5.77 4.97-12.75 5.99-15.5 1.01-2.75 4.1-10.85 6.85-18 2.76-7.15 9.58-24.7 15.17-39 5.58-14.3 11.43-29.38 12.98-33.5 1.56-4.13 4.86-12.68 7.34-19 2.48-6.32 9.66-24.55 15.96-40.5 6.29-15.95 16.71-42.05 23.15-58 6.43-15.95 13.74-34.63 16.23-41.5 2.49-6.88 9.39-24.65 15.33-39.5 5.94-14.85 13.6-33.75 17.02-42 3.42-8.25 7.07-18.38 8.11-22.5 1.12-4.43 1.89-10.98 1.89-16 0-5.32-0.63-10.37-1.68-13.5-0.93-2.75-3.07-7.22-4.76-9.93-1.69-2.72-5.4-6.99-8.23-9.5-2.83-2.52-9.13-6.67-14-9.25-4.87-2.57-12.67-6.07-17.35-7.78-4.68-1.71-11.87-3.96-16-5.02-4.12-1.05-13.35-3.06-20.5-4.47-7.15-1.41-16.37-2.89-20.5-3.3-7.02-0.7-7.52-0.91-7.81-3.25-0.17-1.38-0.07-3.06 0.23-3.75 0.42-0.99 32.39-1.25 309.58-1.25zm-181.25 180.5c-2.73 7.15-13.29 33.93-23.47 59.5-10.18 25.57-25.02 63.15-32.98 83.5-7.96 20.35-16.67 42.63-19.34 49.5-2.68 6.87-7.07 18.13-9.75 25-2.69 6.87-9.98 25.55-16.21 41.5-6.23 15.95-13.69 35.08-16.58 42.5-2.9 7.42-5.19 13.61-5.09 13.74 0.09 0.14 1.52-0.17 3.17-0.69 1.65-0.51 16.05-4.34 32-8.5 15.95-4.17 32.15-8.43 36-9.47 3.85-1.04 17.35-4.67 30-8.07 12.65-3.4 25.93-6.98 29.5-7.96 3.58-0.98 16.18-4.36 28-7.5 11.83-3.15 27.35-7.28 34.5-9.18 7.15-1.9 22.23-5.9 33.5-8.89 11.27-2.98 21.51-5.66 22.75-5.95 1.24-0.29 2.24-0.87 2.23-1.28-0.01-0.41-6.27-19.42-13.92-42.25-7.65-22.82-19.61-58.15-26.59-78.5-6.98-20.35-14.39-42.18-16.48-48.5-2.08-6.32-9.28-27.48-15.99-47-6.71-19.52-13.68-39.77-15.5-45-1.81-5.23-6.29-17.82-9.94-28-3.66-10.18-6.75-18.58-6.88-18.68-0.12-0.11-4.21 10.47-9.09 23.5-4.88 13.02-11.1 29.53-13.84 36.68zm197.25 150.5h28v-20h-28zm28 90h32v-22h-32zm55 282h74v-21h-74zm9-372h57v28h-57zm154 242h29v27h-29z"/>
</svg>