<svg width="394" height="315" viewBox="0 0 394 315" xmlns="http://www.w3.org/2000/svg" lang="en" xml:lang="en"><rect x="2" y="2" stroke-width="4" rx="6" width="390" height="311" stroke="rgba(56,139,253,0.4)" fill="#0d1117"/><g font-weight="600" font-size="110pt" font-family="Verdana,Geneva,DejaVu Sans,sans-serif" text-rendering="geometricPrecision"><g transform="translate(0, 21)" fill="#c9d1d9"><g transform="translate(15, 0)"><g transform="scale(0.095)"><text x="0" y="132" textLength="3652" lengthAdjust="spacingAndGlyphs">Language Distribution in Public Repositories</text></g></g><g transform="translate(212, 21)"><circle cx="71" cy="71" r="71" fill="#ffffff"/></g><g transform="translate(213, 22)"><g><path fill-rule="evenodd" fill="#555555" d="M 0.0,70.00000000000001 A 70 70 0 1 1 89.31300681040018 137.28304220189094 L 70,70 Z"/><path fill-rule="evenodd" fill="#dea584" d="M 89.31300681040018,137.28304220189094 A 70 70 0 0 1 53.17224884096784 137.94723534427055 L 70,70 Z"/><path fill-rule="evenodd" fill="#ec915c" d="M 53.17224884096784,137.94723534427055 A 70 70 0 0 1 28.555863440599083 126.41261866679943 L 70,70 Z"/><path fill-rule="evenodd" fill="#e34c26" d="M 28.555863440599083,126.41261866679943 A 70 70 0 0 1 17.20140292545846 115.95985364380758 L 70,70 Z"/><path fill-rule="evenodd" fill="#00ADD8" d="M 17.20140292545846,115.95985364380758 A 70 70 0 0 1 10.108935864362756 106.23617580127609 L 70,70 Z"/><path fill-rule="evenodd" fill="#f1e05a" d="M 10.108935864362756,106.23617580127609 A 70 70 0 0 1 5.204040581069094 96.48553648654789 L 70,70 Z"/><path fill-rule="evenodd" fill="#3572A5" d="M 5.204040581069094,96.48553648654789 A 70 70 0 0 1 2.4514196184623245 88.36271462608246 L 70,70 Z"/><path fill-rule="evenodd" fill="#3178c6" d="M 2.4514196184623245,88.36271462608246 A 70 70 0 0 1 1.1452120150847804 82.61024074125373 L 70,70 Z"/><path fill-rule="evenodd" fill="#000080" d="M 1.1452120150847804,82.61024074125373 A 70 70 0 0 1 0.6116830384358849 79.23371372967097 L 70,70 Z"/><path fill-rule="evenodd" fill="#41b883" d="M 0.6116830384358849,79.23371372967097 A 70 70 0 0 1 0.3040670920269406 76.51743324379444 L 70,70 Z"/><path fill-rule="evenodd" fill="#427819" d="M 0.3040670920269406,76.51743324379444 A 70 70 0 0 1 0.11146981272462142 73.94884138226625 L 70,70 Z"/><path fill-rule="evenodd" fill="#663399" d="M 0.11146981272462142,73.94884138226625 A 70 70 0 0 1 0.04313998145207165 72.45718056831194 L 70,70 Z"/><path fill-rule="evenodd" fill="#89e051" d="M 0.04313998145207165,72.45718056831194 A 70 70 0 0 1 0.015365881806502557 71.4666244722446 L 70,70 Z"/><path fill-rule="evenodd" fill="#DA3434" d="M 0.015365881806502557,71.4666244722446 A 70 70 0 0 1 0.005129485462461503 70.84740878749452 L 70,70 Z"/><path fill-rule="evenodd" fill="#012456" d="M 0.005129485462461503,70.84740878749452 A 70 70 0 0 1 0.001068872207071081 70.3868345466745 L 70,70 Z"/><path fill-rule="evenodd" fill="#959da5" d="M 0.001068872207071081,70.3868345466745 A 70 70 0 0 1 0.00022851372186494245 70.1788627094808 L 70,70 Z"/><path fill-rule="evenodd" fill="#384d54" d="M 0.00022851372186494245,70.1788627094808 A 70 70 0 0 1 0.0 70.00000000000003 L 70,70 Z"/><animateTransform attributeName="transform" attributeType="XML" type="rotate" from="0 70 70" to="360 70 70" dur="10s" repeatCount="indefinite"/></g></g><g transform="translate(15, 21)"><rect x="0.5" y="0.5" rx="2" width="15" height="15" fill="#555555" stroke-width="1" stroke="#ffffff"/><text transform="scale(0.095)" x="263" y="132" textLength="798" lengthAdjust="spacingAndGlyphs">C 70.55%</text></g><g transform="translate(15, 42)"><rect x="0.5" y="0.5" rx="2" width="15" height="15" fill="#dea584" stroke-width="1" stroke="#ffffff"/><text transform="scale(0.095)" x="263" y="132" textLength="946" lengthAdjust="spacingAndGlyphs">Rust 8.31%</text></g><g transform="translate(15, 63)"><rect x="0.5" y="0.5" rx="2" width="15" height="15" fill="#ec915c" stroke-width="1" stroke="#ffffff"/><text transform="scale(0.095)" x="263" y="132" textLength="842" lengthAdjust="spacingAndGlyphs">Zig 6.22%</text></g><g transform="translate(15, 84)"><rect x="0.5" y="0.5" rx="2" width="15" height="15" fill="#e34c26" stroke-width="1" stroke="#ffffff"/><text transform="scale(0.095)" x="263" y="132" textLength="1036" lengthAdjust="spacingAndGlyphs">HTML 3.52%</text></g><g transform="translate(15, 105)"><rect x="0.5" y="0.5" rx="2" width="15" height="15" fill="#00ADD8" stroke-width="1" stroke="#ffffff"/><text transform="scale(0.095)" x="263" y="132" textLength="806" lengthAdjust="spacingAndGlyphs">Go 2.74%</text></g><g transform="translate(15, 126)"><rect x="0.5" y="0.5" rx="2" width="15" height="15" fill="#f1e05a" stroke-width="1" stroke="#ffffff"/><text transform="scale(0.095)" x="263" y="132" textLength="1412" lengthAdjust="spacingAndGlyphs">JavaScript 2.48%</text></g><g transform="translate(15, 147)"><rect x="0.5" y="0.5" rx="2" width="15" height="15" fill="#3572A5" stroke-width="1" stroke="#ffffff"/><text transform="scale(0.095)" x="263" y="132" textLength="1149" lengthAdjust="spacingAndGlyphs">Python 1.95%</text></g><g transform="translate(15, 168)"><rect x="0.5" y="0.5" rx="2" width="15" height="15" fill="#3178c6" stroke-width="1" stroke="#ffffff"/><text transform="scale(0.095)" x="263" y="132" textLength="1462" lengthAdjust="spacingAndGlyphs">TypeScript 1.34%</text><rect x="197.5" y="0.5" rx="2" width="15" height="15" fill="#000080" stroke-width="1" stroke="#ffffff"/><text transform="scale(0.095)" x="2337" y="132" textLength="874" lengthAdjust="spacingAndGlyphs">Lua 0.78%</text></g><g transform="translate(15, 189)"><rect x="0.5" y="0.5" rx="2" width="15" height="15" fill="#41b883" stroke-width="1" stroke="#ffffff"/><text transform="scale(0.095)" x="263" y="132" textLength="897" lengthAdjust="spacingAndGlyphs">Vue 0.62%</text><rect x="197.5" y="0.5" rx="2" width="15" height="15" fill="#427819" stroke-width="1" stroke="#ffffff"/><text transform="scale(0.095)" x="2337" y="132" textLength="1272" lengthAdjust="spacingAndGlyphs">Makefile 0.59%</text></g><g transform="translate(15, 210)"><rect x="0.5" y="0.5" rx="2" width="15" height="15" fill="#663399" stroke-width="1" stroke="#ffffff"/><text transform="scale(0.095)" x="263" y="132" textLength="903" lengthAdjust="spacingAndGlyphs">CSS 0.34%</text><rect x="197.5" y="0.5" rx="2" width="15" height="15" fill="#89e051" stroke-width="1" stroke="#ffffff"/><text transform="scale(0.095)" x="2337" y="132" textLength="982" lengthAdjust="spacingAndGlyphs">Shell 0.23%</text></g><g transform="translate(15, 231)"><rect x="0.5" y="0.5" rx="2" width="15" height="15" fill="#DA3434" stroke-width="1" stroke="#ffffff"/><text transform="scale(0.095)" x="263" y="132" textLength="1134" lengthAdjust="spacingAndGlyphs">CMake 0.14%</text><rect x="197.5" y="0.5" rx="2" width="15" height="15" fill="#012456" stroke-width="1" stroke="#ffffff"/><text transform="scale(0.095)" x="2337" y="132" textLength="1486" lengthAdjust="spacingAndGlyphs">PowerShell 0.10%</text></g><g transform="translate(15, 252)"><rect x="0.5" y="0.5" rx="2" width="15" height="15" fill="#959da5" stroke-width="1" stroke="#ffffff"/><text transform="scale(0.095)" x="263" y="132" textLength="958" lengthAdjust="spacingAndGlyphs">NSIS 0.05%</text><rect x="197.5" y="0.5" rx="2" width="15" height="15" fill="#384d54" stroke-width="1" stroke="#ffffff"/><text transform="scale(0.095)" x="2337" y="132" textLength="1414" lengthAdjust="spacingAndGlyphs">Dockerfile 0.03%</text></g></g></g></svg>