<svg width="390" height="252" viewBox="0 0 390 252" xmlns="http://www.w3.org/2000/svg" lang="en" xml:lang="en"><rect x="2" y="2" stroke-width="4" rx="6" width="386" height="248" stroke="rgba(56,139,253,0.4)" fill="#0d1117"/><g font-weight="600" font-size="110pt" font-family="Verdana,Geneva,DejaVu Sans,sans-serif" text-rendering="geometricPrecision"><g transform="translate(0, 21)" fill="#c9d1d9"><g transform="translate(15, 0)"><g transform="scale(0.095)"><text x="0" y="132" textLength="3652" lengthAdjust="spacingAndGlyphs">Language Distribution in Public Repositories</text></g></g><g transform="translate(210, 21)"><circle cx="71" cy="71" r="71" fill="#ffffff"/></g><g transform="translate(211, 22)"><g><path fill-rule="evenodd" fill="#555555" d="M 0.0,70.00000000000001 A 70 70 0 1 1 78.08464650047088 139.53156470957936 L 70,70 Z"/><path fill-rule="evenodd" fill="#dea584" d="M 78.08464650047088,139.53156470957936 A 70 70 0 0 1 41.083765730309004 133.7483442581872 L 70,70 Z"/><path fill-rule="evenodd" fill="#ec915c" d="M 41.083765730309004,133.7483442581872 A 70 70 0 0 1 18.291914981158982 117.18340750395535 L 70,70 Z"/><path fill-rule="evenodd" fill="#00ADD8" d="M 18.291914981158982,117.18340750395535 A 70 70 0 0 1 10.735612754235191 107.25228052594942 L 70,70 Z"/><path fill-rule="evenodd" fill="#3572A5" d="M 10.735612754235191,107.25228052594942 A 70 70 0 0 1 6.490799009914461 99.43775449318305 L 70,70 Z"/><path fill-rule="evenodd" fill="#f1e05a" d="M 6.490799009914461,99.43775449318305 A 70 70 0 0 1 4.008531940517699 93.34793659735965 L 70,70 Z"/><path fill-rule="evenodd" fill="#3178c6" d="M 4.008531940517699,93.34793659735965 A 70 70 0 0 1 2.239032199717684 87.5627800410158 L 70,70 Z"/><path fill-rule="evenodd" fill="#e34c26" d="M 2.239032199717684,87.5627800410158 A 70 70 0 0 1 1.2255656718510295 83.04136430144959 L 70,70 Z"/><path fill-rule="evenodd" fill="#000080" d="M 1.2255656718510295,83.04136430144959 A 70 70 0 0 1 0.6535611207411165 79.5431344308467 L 70,70 Z"/><path fill-rule="evenodd" fill="#41b883" d="M 0.6535611207411165,79.5431344308467 A 70 70 0 0 1 0.3240522361113989 76.72772645132564 L 70,70 Z"/><path fill-rule="evenodd" fill="#959da5" d="M 0.3240522361113989,76.72772645132564 A 70 70 0 0 1 0.0 70.00000000000003 L 70,70 Z"/><animateTransform attributeName="transform" attributeType="XML" type="rotate" from="0 70 70" to="360 70 70" dur="10s" repeatCount="indefinite"/></g></g><g transform="translate(15, 21)"><rect x="0.5" y="0.5" rx="2" width="15" height="15" fill="#555555" stroke-width="1" stroke="#ffffff"/><text transform="scale(0.095)" x="263" y="132" textLength="798" lengthAdjust="spacingAndGlyphs">C 73.16%</text></g><g transform="translate(15, 42)"><rect x="0.5" y="0.5" rx="2" width="15" height="15" fill="#dea584" stroke-width="1" stroke="#ffffff"/><text transform="scale(0.095)" x="263" y="132" textLength="946" lengthAdjust="spacingAndGlyphs">Rust 8.62%</text></g><g transform="translate(15, 63)"><rect x="0.5" y="0.5" rx="2" width="15" height="15" fill="#ec915c" stroke-width="1" stroke="#ffffff"/><text transform="scale(0.095)" x="263" y="132" textLength="842" lengthAdjust="spacingAndGlyphs">Zig 6.45%</text></g><g transform="translate(15, 84)"><rect x="0.5" y="0.5" rx="2" width="15" height="15" fill="#00ADD8" stroke-width="1" stroke="#ffffff"/><text transform="scale(0.095)" x="263" y="132" textLength="806" lengthAdjust="spacingAndGlyphs">Go 2.84%</text></g><g transform="translate(15, 105)"><rect x="0.5" y="0.5" rx="2" width="15" height="15" fill="#3572A5" stroke-width="1" stroke="#ffffff"/><text transform="scale(0.095)" x="263" y="132" textLength="1149" lengthAdjust="spacingAndGlyphs">Python 2.02%</text></g><g transform="translate(15, 126)"><rect x="0.5" y="0.5" rx="2" width="15" height="15" fill="#f1e05a" stroke-width="1" stroke="#ffffff"/><text transform="scale(0.095)" x="263" y="132" textLength="1412" lengthAdjust="spacingAndGlyphs">JavaScript 1.50%</text></g><g transform="translate(15, 147)"><rect x="0.5" y="0.5" rx="2" width="15" height="15" fill="#3178c6" stroke-width="1" stroke="#ffffff"/><text transform="scale(0.095)" x="263" y="132" textLength="1462" lengthAdjust="spacingAndGlyphs">TypeScript 1.38%</text></g><g transform="translate(15, 168)"><rect x="0.5" y="0.5" rx="2" width="15" height="15" fill="#e34c26" stroke-width="1" stroke="#ffffff"/><text transform="scale(0.095)" x="263" y="132" textLength="1036" lengthAdjust="spacingAndGlyphs">HTML 1.05%</text><rect x="195.5" y="0.5" rx="2" width="15" height="15" fill="#000080" stroke-width="1" stroke="#ffffff"/><text transform="scale(0.095)" x="2316" y="132" textLength="874" lengthAdjust="spacingAndGlyphs">Lua 0.81%</text></g><g transform="translate(15, 189)"><rect x="0.5" y="0.5" rx="2" width="15" height="15" fill="#41b883" stroke-width="1" stroke="#ffffff"/><text transform="scale(0.095)" x="263" y="132" textLength="897" lengthAdjust="spacingAndGlyphs">Vue 0.64%</text><rect x="195.5" y="0.5" rx="2" width="15" height="15" fill="#959da5" stroke-width="1" stroke="#ffffff"/><text transform="scale(0.095)" x="2316" y="132" textLength="1047" lengthAdjust="spacingAndGlyphs">Other 1.52%</text></g></g></g></svg>